<?xml version="1.0" encoding="UTF-8"?>
<svg version="1.1" xmlns="http://www.w3.org/2000/svg" width="374" height="368">
<path d="M0 0 C0.67731674 0.13280869 1.35463348 0.26561737 2.05247498 0.40245056 C17.02411689 3.33029338 32.0020918 6.13034943 47.0625 8.5625 C48.43091034 8.78419861 48.43091034 8.78419861 49.82696533 9.01037598 C79.43155175 13.78504094 109.08704745 16.94854598 139 19 C140.05783691 19.07347656 141.11567383 19.14695312 142.20556641 19.22265625 C213.03962372 23.84413908 285.02915573 17.094636 354.37304688 2.54003906 C355.18397293 2.3710611 355.99489899 2.20208313 356.83039856 2.02798462 C358.3399374 1.7122521 359.84855585 1.39207144 361.35600281 1.0664978 C364.98065033 0.30693419 368.30563468 -0.06487908 372 0 C372.02333878 8.36353772 372.04102348 16.72706145 372.05181217 25.09062386 C372.05699445 28.97562957 372.06400573 32.86061273 372.07543945 36.74560547 C372.08643604 40.5063079 372.09231172 44.26698886 372.09487724 48.02770615 C372.09670168 49.45075696 372.10026293 50.87380682 372.10573006 52.2968483 C372.21094908 80.86332357 372.21094908 80.86332357 365.63671875 88.60546875 C343.42990319 110.92249183 277.17150289 110.09163432 247 112 C246.17564453 112.05220703 245.35128906 112.10441406 244.50195312 112.15820312 C182.38141037 116.0258157 120.11770417 114.64769289 58.5625 105 C57.79356415 104.88047974 57.0246283 104.76095947 56.23239136 104.63781738 C13.75557288 97.96017887 13.75557288 97.96017887 4 88 C-1.71510888 80.14371867 -0.50601532 70.05138111 -0.390625 60.83984375 C-0.38315376 59.08151394 -0.377465 57.32317574 -0.37347412 55.56483459 C-0.35828719 50.96319109 -0.31906633 46.36206201 -0.2746582 41.76062012 C-0.23355471 37.05467688 -0.21543107 32.34864958 -0.1953125 27.64257812 C-0.15256445 18.42816085 -0.08439849 9.2141234 0 0 Z " fill="#1692CE" transform="translate(2,54)"/>
<path d="M0 0 C0.72659317 0.13575439 1.45318634 0.27150879 2.20179749 0.41137695 C23.29161603 4.36376692 23.29161603 4.36376692 44.4375 8 C45.18416931 8.12217896 45.93083862 8.24435791 46.70013428 8.37023926 C75.89314169 13.09965051 105.46906921 16.38160868 135 18 C135.69513702 18.04130035 136.39027405 18.08260071 137.10647583 18.12515259 C152.92404299 19.05613908 168.72042964 19.20115979 184.5625 19.1875 C185.86257996 19.18689575 187.16265991 19.1862915 188.50213623 19.18566895 C209.40482214 19.15938231 230.16834108 18.72845365 251 17 C251.77917786 16.93683594 252.55835571 16.87367188 253.36114502 16.80859375 C291.63524588 13.6937593 329.37875653 8.05758029 367.02709961 0.54736328 C370 0 370 0 372 0 C372.02331862 8.51119231 372.04101351 17.02237095 372.05181217 25.53358746 C372.05699874 29.48700284 372.06401819 33.44039615 372.07543945 37.39379883 C372.08642033 41.21933518 372.09230854 45.04485047 372.09487724 48.87040138 C372.09670442 50.31939843 372.10027138 51.76839451 372.10573006 53.21738243 C372.20297746 80.13750764 372.20297746 80.13750764 367.50390625 85.59130859 C362.58486122 90.19892058 357.71992852 92.82485641 351.125 94.375 C350.32747314 94.572146 349.52994629 94.76929199 348.70825195 94.97241211 C345.81082958 95.67320763 342.90670445 96.33875706 340 97 C338.80391113 97.27634277 337.60782227 97.55268555 336.37548828 97.83740234 C285.4556033 109.53513734 233.37490759 112.23291559 181.25 112.1875 C179.95840973 112.18689575 178.66681946 112.1862915 177.33609009 112.18566895 C156.49412382 112.15931376 135.76913307 111.7820056 115 110 C114.25520386 109.93683594 113.51040771 109.87367188 112.74304199 109.80859375 C83.76089411 107.32218964 54.63963871 103.76341374 26.3125 97 C25.39355957 96.78746582 24.47461914 96.57493164 23.52783203 96.35595703 C15.5028283 94.29436384 7.57906931 90.95788115 2.9375 83.8125 C0.29531599 79.04528544 -0.14076106 74.9637 -0.11352539 69.59106445 C-0.11367142 68.83960144 -0.11381744 68.08813843 -0.1139679 67.31390381 C-0.11327129 64.83033358 -0.10549067 62.34683837 -0.09765625 59.86328125 C-0.09579118 58.14121034 -0.09436769 56.41913889 -0.09336853 54.69706726 C-0.0895504 50.16460709 -0.07972611 45.63217896 -0.06866455 41.09973145 C-0.05843531 36.47469516 -0.05386766 31.84965371 -0.04882812 27.22460938 C-0.03810323 18.1497255 -0.02103523 9.07486542 0 0 Z " fill="#1693CE" transform="translate(2,161)"/>
<path d="M0 0 C0.02331376 7.37227583 0.0410111 14.74454353 0.05181217 22.11684895 C0.05699977 25.5412102 0.06402119 28.96554598 0.07543945 32.38989258 C0.08852415 36.33935222 0.09326226 40.28880204 0.09765625 44.23828125 C0.10281754 45.45018631 0.10797882 46.66209137 0.11329651 47.91072083 C0.1146842 69.22958706 0.1146842 69.22958706 -5 75 C-5.46535156 75.57363281 -5.93070312 76.14726562 -6.41015625 76.73828125 C-12.93217663 83.67628471 -22.09336122 84.99480344 -31 87 C-32.18432617 87.27344238 -33.36865234 87.54688477 -34.58886719 87.82861328 C-77.87595062 97.78177778 -122.29061008 102.10129449 -166.69140625 102.203125 C-167.97998693 102.20736607 -167.97998693 102.20736607 -169.29459953 102.21169281 C-173.86119751 102.22655443 -178.42776509 102.23585991 -182.99438477 102.24023438 C-186.66538706 102.24456954 -190.33614774 102.25828551 -194.00708008 102.28125 C-214.05318084 102.40390624 -233.97876998 102.12700978 -253.9765625 100.6328125 C-254.79929216 100.57166512 -255.62202183 100.51051773 -256.46968269 100.4475174 C-352.49085032 93.13732913 -352.49085032 93.13732913 -367.875 76 C-371.39337371 71.03288417 -372.24992084 67.3539838 -372.22705078 61.28198242 C-372.22734283 60.62776306 -372.22763489 59.9735437 -372.22793579 59.29949951 C-372.22654982 57.15135121 -372.21102371 55.00355596 -372.1953125 52.85546875 C-372.19157975 51.3604603 -372.18873402 49.8654494 -372.18673706 48.37043762 C-372.17912118 44.44622986 -372.15949041 40.52217145 -372.1373291 36.59802246 C-372.11682649 32.5894574 -372.10772592 28.58086807 -372.09765625 24.57226562 C-372.07624245 16.71477541 -372.04213138 8.85740631 -372 1 C-365.58663936 1.50964878 -359.32713143 2.18866144 -353.01171875 3.41796875 C-351.50966287 3.70354416 -350.00745819 3.9883377 -348.50512695 4.27246094 C-347.33175278 4.49621399 -347.33175278 4.49621399 -346.13467407 4.7244873 C-311.75151444 11.22988453 -276.9544695 15.59213703 -242.03451538 17.86639404 C-240.68810431 17.95481242 -239.34191994 18.04676019 -237.9960022 18.14239502 C-221.04419771 19.33292976 -204.04721261 19.24561618 -187.0625 19.25 C-185.88439947 19.25066278 -185.88439947 19.25066278 -184.68249893 19.25133896 C-158.34954978 19.25908965 -132.21918001 18.6490534 -106 16 C-105.14581482 15.91514343 -104.29162964 15.83028687 -103.41156006 15.74285889 C-71.47795402 12.54957242 -39.72260447 7.7227547 -8.28799438 1.24742126 C-2.19941172 0 -2.19941172 0 0 0 Z " fill="#1693CE" transform="translate(374,266)"/>
<path d="M0 0 C4.75002625 0.02427389 9.49982692 0.01857807 14.249897 0.01312256 C54.48828551 -0.01797908 94.36723334 1.83141003 134.27600098 7.0670166 C137.59155429 7.4830366 140.905375 7.83574508 144.2310791 8.15881348 C159.76317588 9.74358984 185.58387638 13.1897187 196.61706543 25.45910645 C198.57583106 28.67378427 198.45217418 30.84187796 197.8717041 34.51818848 C174.82865058 60.67516814 106.77169061 58.15606531 74.82873535 60.20568848 C-130.01454789 72.5812185 -130.01454789 72.5812185 -173.8548584 36.08068848 C-175.73070095 33.77904117 -175.91214188 31.47568448 -175.7845459 28.57287598 C-174.63667979 24.97896186 -172.01196692 23.69250681 -168.8470459 21.88537598 C-167.9498584 21.4342041 -167.0526709 20.98303223 -166.1282959 20.51818848 C-165.2929834 20.0876416 -164.4576709 19.65709473 -163.5970459 19.21350098 C-116.42368917 -2.61095429 -50.54110402 -0.33843327 0 0 Z " fill="#1693CE" transform="translate(176.1282958984375,0.4818115234375)"/>
</svg>
