<?xml version="1.0" encoding="UTF-8"?>
<svg version="1.1" xmlns="http://www.w3.org/2000/svg" width="700" height="700">
<path d="M0 0 C0.69164246 -0.00295074 1.38328491 -0.00590149 2.09588623 -0.00894165 C30.47146046 -0.03650673 30.47146046 -0.03650673 39.25 7.3125 C40.53203013 10.5382492 41.1142417 13.87117206 41.7578125 17.2734375 C42.19120324 19.2919904 42.6261481 21.31021014 43.0625 23.328125 C43.72610446 26.5067511 44.37483391 29.68664652 44.99511719 32.87402344 C46.83719496 44.86121295 46.83719496 44.86121295 52.85839844 54.87597656 C56.85440957 56.83406262 60.10945199 57.29480653 64.5234375 57.36328125 C67.87726777 56.07075927 70.85537426 54.4224467 73.875 52.5 C75.18617626 51.69397518 76.49737548 50.88798773 77.80859375 50.08203125 C80.15194602 48.62352879 82.49257261 47.16073733 84.83251953 45.69677734 C87.52772572 44.01635159 90.23224496 42.35168641 92.9375 40.6875 C93.79875488 40.14246826 94.66000977 39.59743652 95.54736328 39.03588867 C96.76721924 38.28722534 96.76721924 38.28722534 98.01171875 37.5234375 C98.73319092 37.07274902 99.45466309 36.62206055 100.19799805 36.15771484 C102.70107994 35.12670122 103.75410265 35.36940992 106.25 36.3125 C122.02686259 44.31525639 135.5404874 56.39393132 146.25 70.3125 C146.97703125 71.24707031 147.7040625 72.18164062 148.453125 73.14453125 C150.47138079 75.81685142 152.369738 78.54202546 154.25 81.3125 C154.81203125 82.02664062 155.3740625 82.74078125 155.953125 83.4765625 C157.56119274 85.94411472 158.16735273 87.3555645 158.25 90.3125 C156.37274903 94.86985142 153.68604425 98.78072163 150.92138672 102.84521484 C147.51343012 107.87600791 144.24169194 112.98599925 141 118.125 C140.29576904 119.17429687 139.59153809 120.22359375 138.8659668 121.3046875 C135.24488452 126.79951176 135.24488452 126.79951176 134.46679688 133.12255859 C135.22659984 135.63278783 136.1930666 137.91617686 137.25 140.3125 C137.62169741 141.97103246 137.96563598 143.63678344 138.25 145.3125 C139.95542969 145.49039063 139.95542969 145.49039063 141.6953125 145.671875 C147.13608663 146.35525726 152.30951525 147.78600718 157.5859375 149.24121094 C161.83636146 150.41040549 166.07174964 151.51287526 170.3828125 152.4375 C182.02802754 155.03949389 182.02802754 155.03949389 184.93359375 158.06640625 C185.83137539 160.5178618 186.03043715 162.71068022 186.25 165.3125 C186.51296875 166.34246094 186.7759375 167.37242187 187.046875 168.43359375 C191.94940258 188.40924341 191.57391641 212.4997829 184.29248047 231.8581543 C181.09816004 235.69660795 177.14569184 236.12389292 172.40234375 237.20703125 C171.43470596 237.44411301 170.46706818 237.68119476 169.47010803 237.92546082 C166.38010929 238.67750315 163.28422345 239.40120605 160.1875 240.125 C158.09787431 240.63037451 156.008675 241.13751553 153.91992188 241.64648438 C150.10522194 242.56886476 146.28966577 243.48679979 142.46850586 244.38208008 C141.70034042 244.56241287 140.93217499 244.74274567 140.14073181 244.92854309 C138.25 245.3125 138.25 245.3125 136.25 245.3125 C136.05664062 245.90417969 135.86328125 246.49585938 135.6640625 247.10546875 C135.27347656 248.29076172 135.27347656 248.29076172 134.875 249.5 C134.49214844 250.66595703 134.49214844 250.66595703 134.1015625 251.85546875 C133.25 254.3125 133.25 254.3125 132.05322266 256.67211914 C130.97958743 259.26945407 130.97958743 259.26945407 132.05761719 261.62988281 C132.7947998 262.8108252 132.7947998 262.8108252 133.546875 264.015625 C134.08948975 264.90580322 134.63210449 265.79598145 135.19116211 266.71313477 C135.78807861 267.65342529 136.38499512 268.59371582 137 269.5625 C137.88860718 271.01837524 137.88860718 271.01837524 138.79516602 272.50366211 C141.13062166 276.32751207 143.50485271 280.12626105 145.88818359 283.92041016 C146.87996234 285.50415387 147.86524884 287.09198911 148.84277344 288.68457031 C149.7209665 290.11506198 150.6155641 291.53564663 151.52832031 292.94433594 C154.39484454 297.61806803 154.39484454 297.61806803 153.69921875 300.953125 C153.22097656 301.73171875 152.74273437 302.5103125 152.25 303.3125 C151.77304687 304.15167969 151.29609375 304.99085938 150.8046875 305.85546875 C146.67086145 312.36384139 142.16313764 318.37621411 137.25 324.3125 C136.55261719 325.23289062 135.85523438 326.15328125 135.13671875 327.1015625 C134.20279297 328.19597656 134.20279297 328.19597656 133.25 329.3125 C132.59 329.3125 131.93 329.3125 131.25 329.3125 C131.25 329.9725 131.25 330.6325 131.25 331.3125 C126.32944152 336.53697532 120.18645664 340.97181545 114.3515625 345.10546875 C111.24101331 347.23559585 111.24101331 347.23559585 108.5859375 349.67578125 C105.20926223 352.18152731 103.48859521 353.09536812 99.25 353.3125 C92.19242833 350.72933651 85.97669306 346.26545445 79.80957031 342.05078125 C76.50561713 339.80696718 73.1100269 337.74316065 69.6875 335.6875 C68.73746094 335.09710938 67.78742188 334.50671875 66.80859375 333.8984375 C65.96425781 333.37507813 65.11992187 332.85171875 64.25 332.3125 C63.404375 331.72210938 62.55875 331.13171875 61.6875 330.5234375 C59.36004103 329.07860635 59.36004103 329.07860635 57.00390625 329.640625 C56.28074219 329.94484375 55.55757812 330.2490625 54.8125 330.5625 C51.28191752 331.93812829 48.0307925 332.82778301 44.25 333.3125 C44.15348145 333.90353516 44.05696289 334.49457031 43.95751953 335.10351562 C42.54444949 343.32110864 40.71819579 351.418382 38.69335938 359.50390625 C38.31172795 361.05403801 37.9437287 362.60758432 37.58886719 364.1640625 C37.06806055 366.44152039 36.5039929 368.70427211 35.9296875 370.96875 C35.78038788 371.66246704 35.63108826 372.35618408 35.4772644 373.07092285 C34.72022488 375.89122645 33.9818184 377.87999808 31.41157532 379.39900208 C29.37033587 380.17842164 27.36878398 380.78398303 25.25 381.3125 C24.19683594 381.62574219 23.14367187 381.93898438 22.05859375 382.26171875 C3.97953316 386.22109587 -16.49477725 386.07329373 -34.5625 382.1875 C-35.47467285 381.99994141 -36.3868457 381.81238281 -37.32666016 381.61914062 C-38.56681885 381.30879883 -38.56681885 381.30879883 -39.83203125 380.9921875 C-40.90287964 380.72510986 -40.90287964 380.72510986 -41.99536133 380.45263672 C-44.74519061 378.66584073 -44.94132488 376.41303602 -45.75 373.3125 C-46.02126709 372.31283203 -46.29253418 371.31316406 -46.57202148 370.28320312 C-46.83571533 369.23068359 -47.09940918 368.17816406 -47.37109375 367.09375 C-47.66693359 365.91296875 -47.96277344 364.7321875 -48.26757812 363.515625 C-48.57115234 362.29359375 -48.87472656 361.0715625 -49.1875 359.8125 C-49.63706055 358.02585937 -49.63706055 358.02585937 -50.09570312 356.203125 C-52.15729914 347.93885289 -54.01542896 339.65120106 -55.75 331.3125 C-56.513125 331.17972656 -57.27625 331.04695313 -58.0625 330.91015625 C-60.75 330.3125 -60.75 330.3125 -63.75 328.75 C-66.94609514 327.21853775 -68.28269748 326.9346202 -71.75 327.3125 C-74.4221248 328.60188335 -74.4221248 328.60188335 -77.1875 330.5 C-78.31881927 331.22628957 -79.45176733 331.95004548 -80.5859375 332.671875 C-81.22756836 333.08244141 -81.86919922 333.49300781 -82.53027344 333.91601562 C-87.07516646 336.7753192 -91.69657664 339.5074675 -96.3125 342.25 C-97.27663818 342.82967529 -98.24077637 343.40935059 -99.23413086 344.0065918 C-100.14815674 344.54968994 -101.06218262 345.09278809 -102.00390625 345.65234375 C-102.82189697 346.14081787 -103.6398877 346.62929199 -104.48266602 347.13256836 C-106.63871399 348.25458622 -108.34413314 348.99566776 -110.75 349.3125 C-119.14984067 345.31745383 -126.72706331 339.34033003 -133.75 333.3125 C-134.99910156 332.24708984 -134.99910156 332.24708984 -136.2734375 331.16015625 C-145.73496188 322.87768337 -153.32930189 314.12980018 -159.75 303.3125 C-160.19730469 302.61640625 -160.64460938 301.9203125 -161.10546875 301.203125 C-163.80392268 296.8929665 -163.80392268 296.8929665 -163.58496094 294.53588867 C-162.39222985 291.35980622 -160.65856548 288.55533353 -158.890625 285.67578125 C-158.50436951 285.03690475 -158.11811401 284.39802826 -157.72015381 283.73979187 C-156.48494789 281.69854305 -155.24283964 279.66160824 -154 277.625 C-151.24038582 273.08426941 -148.49265575 268.53677519 -145.76107788 263.97912598 C-144.85929149 262.49265232 -143.93010984 261.02287754 -142.99731445 259.55566406 C-140.23253347 255.1755692 -140.23253347 255.1755692 -140.13671875 250.1328125 C-140.56597656 249.24335938 -140.99523437 248.35390625 -141.4375 247.4375 C-143.75 242.41157121 -143.75 242.41157121 -143.75 239.3125 C-144.88244141 239.19463135 -146.01488281 239.0767627 -147.18164062 238.95532227 C-151.85417069 238.36856298 -156.30368275 237.25488565 -160.84375 236.02734375 C-161.67588013 235.80679825 -162.50801025 235.58625275 -163.36535645 235.35902405 C-165.99490116 234.66090484 -168.62244904 233.9555818 -171.25 233.25 C-173.04414323 232.77230694 -174.83841296 232.29508875 -176.6328125 231.81835938 C-181.00668969 230.65522313 -185.37879235 229.48562698 -189.75 228.3125 C-195.5213485 204.69607835 -195.5213485 204.69607835 -195.75 193.3125 C-195.78867188 192.50683594 -195.82734375 191.70117188 -195.8671875 190.87109375 C-196.18931699 180.00817135 -194.32467026 169.01884071 -192 158.4375 C-191.86754883 157.75349121 -191.73509766 157.06948242 -191.59863281 156.36474609 C-191.140625 154.4453125 -191.140625 154.4453125 -189.75 151.3125 C-184.87997034 149.27952812 -179.60112137 148.20269207 -174.484375 146.9296875 C-173.60976624 146.71055695 -172.73515747 146.49142639 -171.83404541 146.26565552 C-169.99544687 145.80566707 -168.15655335 145.34685623 -166.31738281 144.88916016 C-163.49454871 144.18614237 -160.67301249 143.478081 -157.8515625 142.76953125 C-156.06257542 142.32261464 -154.27351544 141.87598975 -152.484375 141.4296875 C-151.21566559 141.11099197 -151.21566559 141.11099197 -149.92132568 140.78585815 C-143.97995283 139.3125 -143.97995283 139.3125 -141.75 139.3125 C-141.646875 138.61125 -141.54375 137.91 -141.4375 137.1875 C-140.75 134.3125 -140.75 134.3125 -139.125 131.375 C-137.44213931 127.62681029 -137.74169998 126.2549053 -138.75 122.3125 C-139.95067361 120.00241538 -141.17085298 117.87368805 -142.5625 115.6875 C-142.94905762 115.0579541 -143.33561523 114.4284082 -143.73388672 113.77978516 C-145.59102883 110.75583696 -147.4750746 107.74919021 -149.36572266 104.74609375 C-151.04774483 102.06733575 -152.71154345 99.37781494 -154.375 96.6875 C-154.92003174 95.83462402 -155.46506348 94.98174805 -156.02661133 94.10302734 C-156.52572021 93.2930127 -157.0248291 92.48299805 -157.5390625 91.6484375 C-157.98975098 90.93220215 -158.44043945 90.2159668 -158.90478516 89.47802734 C-159.99431452 86.68654108 -159.6074308 85.14674489 -158.75 82.3125 C-149.41689994 64.70134598 -134.15283818 48.21130712 -117.5 37.375 C-116.63242065 36.80833618 -116.63242065 36.80833618 -115.74731445 36.23022461 C-112.18083162 33.98587511 -108.92788804 31.98652547 -104.75 31.3125 C-101.9309524 32.52595641 -99.72514913 33.71850416 -97.1875 35.375 C-96.46804199 35.82093506 -95.74858398 36.26687012 -95.00732422 36.72631836 C-93.43373987 37.70450596 -91.86593537 38.69203645 -90.30322266 39.6875 C-86.62266321 42.02999413 -82.91289817 44.32459467 -79.20336914 46.62084961 C-77.33838584 47.77750951 -75.47679953 48.93966726 -73.61889648 50.10766602 C-72.76755127 50.64061279 -71.91620605 51.17355957 -71.0390625 51.72265625 C-70.28318848 52.19840088 -69.52731445 52.67414551 -68.74853516 53.16430664 C-66.65743918 54.45357355 -66.65743918 54.45357355 -63.75 55.3125 C-61.07578828 54.55274292 -61.07578828 54.55274292 -58.25 53.375 C-53.04830508 51.3125 -53.04830508 51.3125 -49.75 51.3125 C-49.62616943 50.15911133 -49.50233887 49.00572266 -49.37475586 47.81738281 C-48.83456559 43.51452657 -47.87826041 39.41743046 -46.75390625 35.234375 C-46.56030014 34.50051575 -46.36669403 33.76665649 -46.16722107 33.01055908 C-45.76042269 31.47381295 -45.35105507 29.9377448 -44.93920898 28.40234375 C-44.31090811 26.0565566 -43.69300775 23.70819983 -43.07617188 21.359375 C-42.67769786 19.85921163 -42.2786301 18.35920583 -41.87890625 16.859375 C-41.69550186 16.16140808 -41.51209747 15.46344116 -41.32313538 14.74432373 C-39.44436527 7.78870619 -39.44436527 7.78870619 -37.75 5.3125 C-34.94400659 4.38012877 -32.37828373 3.69823802 -29.5 3.125 C-28.74847656 2.96064453 -27.99695313 2.79628906 -27.22265625 2.62695312 C-25.0686831 2.16270237 -22.91519451 1.72128451 -20.75 1.3125 C-19.8115625 1.13525391 -18.873125 0.95800781 -17.90625 0.77539062 C-11.97514107 -0.09445641 -5.98471782 0.02228043 0 0 Z M-56.5 148.5 C-68.45403756 163.87558677 -73.72710502 182.05194954 -71.75 201.3125 C-68.98973994 220.18560821 -58.69267769 236.64476482 -43.75 248.24609375 C-28.69825435 258.61376751 -10.67485672 263.90927097 7.57666016 260.93310547 C28.43598643 256.88287386 43.85221907 246.48426208 55.875 228.94140625 C65.32973162 214.1683881 68.5718536 196.14314563 65.171875 178.97949219 C61.08394346 160.69094362 51.08158623 144.73927728 35.25 134.3125 C4.13968113 115.90335627 -32.26174904 120.66484165 -56.5 148.5 Z " fill="#333333" transform="translate(352.75,157.6875)"/>
</svg>
