<svg height="64" viewBox="0 0 64 64" width="64" xmlns="http://www.w3.org/2000/svg" xmlns:xlink="http://www.w3.org/1999/xlink"><clipPath id="a"><path d="m440 0h-400v300h400z"/></clipPath><clipPath id="b"><path d="m439.996 300h-399.996v180h399.996z"/></clipPath><clipPath id="c"><path d="m439.996 300h-399.996v180h399.996z"/></clipPath><clipPath id="d"><path d="m440 50c0-27.6172-22.387-50-50-50h-300c-27.6133 0-50 22.3828-50 50v380c0 27.617 22.3867 50 50 50h239.996l110.004-110z"/></clipPath><g transform="matrix(.13333333 0 0 -.13333333 0 64)"><g clip-path="url(#a)"><path d="m90 5c-24.8164 0-45 20.1875-45 45v380c0 24.816 20.1836 45 45 45h237.926l107.074-107.07v-317.93c0-24.8125-20.187-45-45-45z" fill="#f6f6f6"/><path d="m329.996 480h-239.996c-27.6133 0-50-22.383-50-50v-380c0-27.6172 22.3867-50 50-50h300c27.613 0 50 22.3828 50 50v320zm-4.141-10 104.145-104.141v-315.859c0-22.0625-17.945-40-40-40h-300c-22.0547 0-40 17.9375-40 40v380c0 22.059 17.9453 40 40 40z" fill="#e0e0e0"/></g><g clip-path="url(#b)"><path d="m90 5c-24.8164 0-45 20.1875-45 45v380c0 24.816 20.1836 45 45 45h237.926l107.074-107.07v-317.93c0-24.8125-20.187-45-45-45z" fill="#648091"/><path d="m329.996 480h-239.996c-27.6133 0-50-22.383-50-50v-380c0-27.6172 22.3867-50 50-50h300c27.613 0 50 22.3828 50 50v320zm-4.141-10 104.145-104.141v-315.859c0-22.0625-17.945-40-40-40h-300c-22.0547 0-40 17.9375-40 40v380c0 22.059 17.9453 40 40 40z" fill="#566f7d"/></g><g clip-path="url(#c)"><g clip-path="url(#d)"><path d="m344.352 384.973 96.793-96.789v96.789z" fill="#566f7d"/><path d="m450 370h-70c-27.613 0-50 22.383-50 50v70h120z" fill="#8f9da6"/></g></g><g fill="#fff"><path d="m108.105 406.797v-35.637h4.922c5.098 0 9.286 1.399 12.571 4.172 3.281 2.793 4.922 7.434 4.922 13.938 0 3.777-.793 7.117-2.375 10.035-1.582 2.922-3.875 4.894-6.875 5.937-3.008 1.039-5.872 1.555-8.594 1.555zm-12.523 10.898h19.688c8.406 0 15.175-2.648 20.3-7.949 5.129-5.301 7.692-12.285 7.692-20.957 0-8.711-2.649-15.684-7.93-20.918-5.293-5.254-12.328-7.871-21.117-7.871h-18.633z"/><path d="m153.238 417.695h12.348v-45.254h17.008v-12.441h-29.356z"/><path d="m191.645 417.695h12.347v-45.254h17.008v-12.441h-29.355z"/></g><path d="m240 130c16.57 0 30 13.438 30 30 0 16.582-13.43 30.012-30 30.012s-30-13.43-30-30.012c0-16.562 13.43-30 30-30zm90 37.5v-15c0-2.754-2.227-5.312-4.949-5.684l-27.531-3.828c-1.211-4.082-2.801-7.988-4.805-11.66l16.738-22.148c1.66-2.188 1.426-5.567-.515-7.52l-10.61-10.6053c-1.941-1.9336-5.332-2.168-7.515-.5078l-22.141 16.7381c-3.672-1.992-7.578-3.594-11.66-4.805l-3.828-27.5191c-.371-2.7343-2.93-4.9609-5.684-4.9609h-15c-2.75 0-5.309 2.2266-5.687 4.9609l-3.825 27.5191c-4.078 1.211-7.984 2.813-11.648 4.805l-22.145-16.7381c-2.191-1.6602-5.582-1.4258-7.523.5078l-10.617 10.6053c-1.946 1.953-2.176 5.332-.52 7.52l16.746 22.148c-2 3.672-3.59 7.578-4.797 11.66l-27.535 3.828c-2.722.372-4.949 2.93-4.949 5.684v15c0 2.754 2.227 5.313 4.949 5.684l27.531 3.828c1.208 4.082 2.801 7.988 4.793 11.66l-16.738 22.141c-1.656 2.195-1.426 5.574.52 7.527l10.617 10.605c1.941 1.946 5.332 2.176 7.523.52l22.133-16.738c3.668 2 7.578 3.601 11.66 4.793l3.825 27.531c.378 2.722 2.937 4.949 5.687 4.949h15c2.754 0 5.313-2.227 5.684-4.949l3.828-27.531c4.082-1.204 8-2.793 11.66-4.805l22.141 16.738c2.183 1.66 5.574 1.426 7.515-.515l10.61-10.598c1.941-1.953 2.175-5.332.515-7.527l-16.726-22.141c1.992-3.672 3.589-7.578 4.793-11.66l27.531-3.828c2.722-.391 4.949-2.95 4.949-5.684" fill="#e0e0e0"/></g></svg>